<mxfile host="app.diagrams.net" modified="2022-08-09T10:03:02.571Z" agent="5.0 (Macintosh; Intel Mac OS X 10_15_7) AppleWebKit/537.36 (KHTML, like Gecko) Chrome/103.0.0.0 Safari/537.36" etag="uOSQwOhU9dcAWFyltJK9" version="18.0.0" type="github">
  <diagram id="C5RBs43oDa-KdzZeNtuy" name="Page-1">
    <mxGraphModel dx="1538" dy="724" grid="1" gridSize="10" guides="1" tooltips="1" connect="1" arrows="1" fold="1" page="1" pageScale="1" pageWidth="827" pageHeight="1169" math="0" shadow="0">
      <root>
        <mxCell id="WIyWlLk6GJQsqaUBKTNV-0" />
        <mxCell id="WIyWlLk6GJQsqaUBKTNV-1" parent="WIyWlLk6GJQsqaUBKTNV-0" />
        <mxCell id="epRhIszM9YL3sDl9_gMQ-7" style="edgeStyle=orthogonalEdgeStyle;rounded=0;orthogonalLoop=1;jettySize=auto;html=1;exitX=0.5;exitY=1;exitDx=0;exitDy=0;entryX=0.5;entryY=0;entryDx=0;entryDy=0;" edge="1" parent="WIyWlLk6GJQsqaUBKTNV-1" source="epRhIszM9YL3sDl9_gMQ-4" target="epRhIszM9YL3sDl9_gMQ-5">
          <mxGeometry relative="1" as="geometry" />
        </mxCell>
        <mxCell id="epRhIszM9YL3sDl9_gMQ-4" value="开始" style="rounded=1;whiteSpace=wrap;html=1;" vertex="1" parent="WIyWlLk6GJQsqaUBKTNV-1">
          <mxGeometry x="300" y="50" width="120" height="40" as="geometry" />
        </mxCell>
        <mxCell id="epRhIszM9YL3sDl9_gMQ-8" style="edgeStyle=orthogonalEdgeStyle;rounded=0;orthogonalLoop=1;jettySize=auto;html=1;exitX=0.5;exitY=1;exitDx=0;exitDy=0;entryX=0.5;entryY=0;entryDx=0;entryDy=0;" edge="1" parent="WIyWlLk6GJQsqaUBKTNV-1" source="epRhIszM9YL3sDl9_gMQ-5" target="epRhIszM9YL3sDl9_gMQ-6">
          <mxGeometry relative="1" as="geometry" />
        </mxCell>
        <mxCell id="epRhIszM9YL3sDl9_gMQ-5" value="人工样本标注" style="rounded=0;whiteSpace=wrap;html=1;" vertex="1" parent="WIyWlLk6GJQsqaUBKTNV-1">
          <mxGeometry x="299" y="130" width="122" height="40" as="geometry" />
        </mxCell>
        <mxCell id="epRhIszM9YL3sDl9_gMQ-12" style="edgeStyle=orthogonalEdgeStyle;rounded=0;orthogonalLoop=1;jettySize=auto;html=1;exitX=0.5;exitY=1;exitDx=0;exitDy=0;entryX=0.5;entryY=0;entryDx=0;entryDy=0;" edge="1" parent="WIyWlLk6GJQsqaUBKTNV-1" source="epRhIszM9YL3sDl9_gMQ-6" target="epRhIszM9YL3sDl9_gMQ-11">
          <mxGeometry relative="1" as="geometry" />
        </mxCell>
        <mxCell id="epRhIszM9YL3sDl9_gMQ-6" value="获取case绑定的路网数据" style="rounded=0;whiteSpace=wrap;html=1;" vertex="1" parent="WIyWlLk6GJQsqaUBKTNV-1">
          <mxGeometry x="299" y="220" width="122" height="40" as="geometry" />
        </mxCell>
        <mxCell id="epRhIszM9YL3sDl9_gMQ-21" style="edgeStyle=orthogonalEdgeStyle;rounded=0;orthogonalLoop=1;jettySize=auto;html=1;exitX=0.5;exitY=1;exitDx=0;exitDy=0;entryX=0.5;entryY=0;entryDx=0;entryDy=0;" edge="1" parent="WIyWlLk6GJQsqaUBKTNV-1" source="epRhIszM9YL3sDl9_gMQ-11" target="epRhIszM9YL3sDl9_gMQ-16">
          <mxGeometry relative="1" as="geometry" />
        </mxCell>
        <mxCell id="epRhIszM9YL3sDl9_gMQ-11" value="根据标注结果获取母库NodeID" style="rounded=0;whiteSpace=wrap;html=1;" vertex="1" parent="WIyWlLk6GJQsqaUBKTNV-1">
          <mxGeometry x="299" y="310" width="122" height="40" as="geometry" />
        </mxCell>
        <mxCell id="epRhIszM9YL3sDl9_gMQ-15" value="数据拆解问题" style="rounded=0;whiteSpace=wrap;html=1;" vertex="1" parent="WIyWlLk6GJQsqaUBKTNV-1">
          <mxGeometry x="178" y="510" width="122" height="40" as="geometry" />
        </mxCell>
        <mxCell id="epRhIszM9YL3sDl9_gMQ-17" style="edgeStyle=orthogonalEdgeStyle;rounded=0;orthogonalLoop=1;jettySize=auto;html=1;exitX=0;exitY=0.5;exitDx=0;exitDy=0;entryX=0.5;entryY=0;entryDx=0;entryDy=0;" edge="1" parent="WIyWlLk6GJQsqaUBKTNV-1" source="epRhIszM9YL3sDl9_gMQ-16" target="epRhIszM9YL3sDl9_gMQ-15">
          <mxGeometry relative="1" as="geometry" />
        </mxCell>
        <mxCell id="epRhIszM9YL3sDl9_gMQ-18" value="N" style="edgeLabel;html=1;align=center;verticalAlign=middle;resizable=0;points=[];" vertex="1" connectable="0" parent="epRhIszM9YL3sDl9_gMQ-17">
          <mxGeometry x="0.0956" y="-1" relative="1" as="geometry">
            <mxPoint as="offset" />
          </mxGeometry>
        </mxCell>
        <mxCell id="epRhIszM9YL3sDl9_gMQ-20" style="edgeStyle=orthogonalEdgeStyle;rounded=0;orthogonalLoop=1;jettySize=auto;html=1;exitX=1;exitY=0.5;exitDx=0;exitDy=0;entryX=0.5;entryY=0;entryDx=0;entryDy=0;" edge="1" parent="WIyWlLk6GJQsqaUBKTNV-1" source="epRhIszM9YL3sDl9_gMQ-16" target="epRhIszM9YL3sDl9_gMQ-19">
          <mxGeometry relative="1" as="geometry" />
        </mxCell>
        <mxCell id="epRhIszM9YL3sDl9_gMQ-30" value="Text" style="edgeLabel;html=1;align=center;verticalAlign=middle;resizable=0;points=[];" vertex="1" connectable="0" parent="epRhIszM9YL3sDl9_gMQ-20">
          <mxGeometry x="-0.0685" y="1" relative="1" as="geometry">
            <mxPoint as="offset" />
          </mxGeometry>
        </mxCell>
        <mxCell id="epRhIszM9YL3sDl9_gMQ-16" value="&lt;span style=&quot;&quot;&gt;Route确定是否该路线可走&lt;/span&gt;" style="rhombus;whiteSpace=wrap;html=1;" vertex="1" parent="WIyWlLk6GJQsqaUBKTNV-1">
          <mxGeometry x="275" y="390" width="170" height="40" as="geometry" />
        </mxCell>
        <mxCell id="epRhIszM9YL3sDl9_gMQ-23" style="edgeStyle=orthogonalEdgeStyle;rounded=0;orthogonalLoop=1;jettySize=auto;html=1;exitX=0.5;exitY=1;exitDx=0;exitDy=0;entryX=0.5;entryY=0;entryDx=0;entryDy=0;" edge="1" parent="WIyWlLk6GJQsqaUBKTNV-1" source="epRhIszM9YL3sDl9_gMQ-19" target="epRhIszM9YL3sDl9_gMQ-22">
          <mxGeometry relative="1" as="geometry" />
        </mxCell>
        <mxCell id="epRhIszM9YL3sDl9_gMQ-19" value="获取经过路线的母库Way ID" style="rounded=0;whiteSpace=wrap;html=1;" vertex="1" parent="WIyWlLk6GJQsqaUBKTNV-1">
          <mxGeometry x="430" y="510" width="122" height="40" as="geometry" />
        </mxCell>
        <mxCell id="epRhIszM9YL3sDl9_gMQ-26" style="edgeStyle=orthogonalEdgeStyle;rounded=0;orthogonalLoop=1;jettySize=auto;html=1;exitX=0;exitY=0.5;exitDx=0;exitDy=0;entryX=0.5;entryY=0;entryDx=0;entryDy=0;" edge="1" parent="WIyWlLk6GJQsqaUBKTNV-1" source="epRhIszM9YL3sDl9_gMQ-22" target="epRhIszM9YL3sDl9_gMQ-24">
          <mxGeometry relative="1" as="geometry" />
        </mxCell>
        <mxCell id="epRhIszM9YL3sDl9_gMQ-27" value="N" style="edgeLabel;html=1;align=center;verticalAlign=middle;resizable=0;points=[];" vertex="1" connectable="0" parent="epRhIszM9YL3sDl9_gMQ-26">
          <mxGeometry x="-0.0105" y="2" relative="1" as="geometry">
            <mxPoint as="offset" />
          </mxGeometry>
        </mxCell>
        <mxCell id="epRhIszM9YL3sDl9_gMQ-28" style="edgeStyle=orthogonalEdgeStyle;rounded=0;orthogonalLoop=1;jettySize=auto;html=1;exitX=1;exitY=0.5;exitDx=0;exitDy=0;entryX=0.5;entryY=0;entryDx=0;entryDy=0;" edge="1" parent="WIyWlLk6GJQsqaUBKTNV-1" source="epRhIszM9YL3sDl9_gMQ-22" target="epRhIszM9YL3sDl9_gMQ-25">
          <mxGeometry relative="1" as="geometry" />
        </mxCell>
        <mxCell id="epRhIszM9YL3sDl9_gMQ-29" value="Y" style="edgeLabel;html=1;align=center;verticalAlign=middle;resizable=0;points=[];" vertex="1" connectable="0" parent="epRhIszM9YL3sDl9_gMQ-28">
          <mxGeometry x="0.0667" relative="1" as="geometry">
            <mxPoint as="offset" />
          </mxGeometry>
        </mxCell>
        <mxCell id="epRhIszM9YL3sDl9_gMQ-22" value="&lt;span style=&quot;&quot;&gt;是否缺失重要badcase的tag&lt;/span&gt;" style="rhombus;whiteSpace=wrap;html=1;" vertex="1" parent="WIyWlLk6GJQsqaUBKTNV-1">
          <mxGeometry x="406" y="600" width="170" height="40" as="geometry" />
        </mxCell>
        <mxCell id="epRhIszM9YL3sDl9_gMQ-24" value="数据拆解问题" style="rounded=0;whiteSpace=wrap;html=1;" vertex="1" parent="WIyWlLk6GJQsqaUBKTNV-1">
          <mxGeometry x="310" y="680" width="122" height="40" as="geometry" />
        </mxCell>
        <mxCell id="epRhIszM9YL3sDl9_gMQ-25" value="服务拆解问题" style="rounded=0;whiteSpace=wrap;html=1;" vertex="1" parent="WIyWlLk6GJQsqaUBKTNV-1">
          <mxGeometry x="560" y="680" width="122" height="40" as="geometry" />
        </mxCell>
      </root>
    </mxGraphModel>
  </diagram>
</mxfile>
